HIERARCHY
ROOT Hips
{
	OFFSET -0.179506 -22.333345 2.821913
	CHANNELS 6 Xposition Yposition Zposition Zrotation Yrotation Xrotation 
	JOINT LeftUpLeg
	{
		OFFSET 6.951974 -9.140623 -0.681533
		CHANNELS 3 Zrotation Yrotation Xrotation
		JOINT LeftLeg
		{
			OFFSET 3.427654 -37.519855 -0.449580
			CHANNELS 3 Zrotation Yrotation Xrotation
			JOINT LeftFoot
			{
				OFFSET -1.359570 -39.796059 -4.369333
				CHANNELS 3 Zrotation Yrotation Xrotation
				JOINT LeftToe
				{
					OFFSET 2.635814 -5.579078 11.928840
					CHANNELS 3 Zrotation Yrotation Xrotation
					End Site
					{
						OFFSET 0.000000 0.000000 0.000000
					}
				}
			}
		}
	}
	JOINT RightUpLeg
	{
		OFFSET -6.767048 -9.052170 -0.431982
		CHANNELS 3 Zrotation Yrotation Xrotation
		JOINT RightLeg
		{
			OFFSET -3.829005 -38.256897 -0.885003
			CHANNELS 3 Zrotation Yrotation Xrotation
			JOINT RightFoot
			{
				OFFSET 1.577377 -39.841461 -4.231180
				CHANNELS 3 Zrotation Yrotation Xrotation
				JOINT RightToe
				{
					OFFSET -2.537174 -4.814398 12.334795
					CHANNELS 3 Zrotation Yrotation Xrotation
					End Site
					{
						OFFSET 0.000000 0.000000 0.000000
					}
				}
			}
		}
	}
	JOINT Spine
	{
		OFFSET -0.253288 10.896323 -2.669631
		CHANNELS 3 Zrotation Yrotation Xrotation
		JOINT Spine1
		{
			OFFSET 0.548704 13.518043 0.109247
			CHANNELS 3 Zrotation Yrotation Xrotation
			JOINT Spine2
			{
				OFFSET 0.145701 5.292222 2.542457
				CHANNELS 3 Zrotation Yrotation Xrotation
				JOINT Neck
				{
					OFFSET -0.277840 21.387037 -4.285703
					CHANNELS 3 Zrotation Yrotation Xrotation
					JOINT Head
					{
						OFFSET 0.515184 6.496960 5.134897
						CHANNELS 3 Zrotation Yrotation Xrotation
						End Site
						{
							OFFSET 0.000000 0.000000 0.000000
						}
					}
				}
				JOINT LeftShoulder
				{
					OFFSET 7.884473 12.174932 -3.408961
					CHANNELS 3 Zrotation Yrotation Xrotation
					JOINT LeftArm
					{
						OFFSET 9.097692 3.046888 -0.886815
						CHANNELS 3 Zrotation Yrotation Xrotation
						JOINT LeftForeArm
						{
							OFFSET 25.961220 -1.277207 -2.745643
							CHANNELS 3 Zrotation Yrotation Xrotation
							JOINT LeftHand
							{
								OFFSET 24.923361 0.898606 -0.117091
								CHANNELS 3 Zrotation Yrotation Xrotation
								End Site
								{
									OFFSET 0.000000 0.000000 0.000000
								}
							}
						}
					}
				}
				JOINT RightShoulder
				{
					OFFSET -8.175920 11.883285 -3.861528
					CHANNELS 3 Zrotation Yrotation Xrotation
					JOINT RightArm
					{
						OFFSET -9.601238 3.255117 -0.914307
						CHANNELS 3 Zrotation Yrotation Xrotation
						JOINT RightForeArm
						{
							OFFSET -25.374195 -1.332924 -2.140099
							CHANNELS 3 Zrotation Yrotation Xrotation
							JOINT RightHand
							{
								OFFSET -25.529810 0.777228 -0.555919
								CHANNELS 3 Zrotation Yrotation Xrotation
								End Site
								{
									OFFSET 0.000000 0.000000 0.000000
								}
							}
						}
					}
				}
			}
		}
	}
}
MOTION
Frames: 16
Frame Time: 0.033333
-32.151215 20.335592 93.291519 175.574505 1.410175 95.722304 -1.087358 -1.266599 1.910735 1.652694 5.512432 -7.144324 2.502803 9.326543 -8.344957 nan nan nan -0.740644 -0.447390 -3.120501 1.633088 -4.731635 -6.102407 11.745292 -2.507577 -2.681867 nan nan nan -1.977569 2.343830 -0.814335 2.232665 -4.151989 2.971646 -0.553589 -0.269345 -1.640246 2.563192 -5.872134 4.167278 17.674474 -3.742595 -11.399168 -21.264394 3.421646 -3.236182 -61.691844 4.020967 20.598352 12.629763 -16.720427 -7.585274 -16.019507 -26.027094 -22.938454 17.806258 -0.333239 -5.977658 51.052528 -1.430752 7.365865 -154.397670 42.536369 -162.223337 12.155337 39.614386 -66.805899 
-32.122898 20.349604 93.284531 175.634735 1.389635 95.699826 -1.092014 -1.240673 1.964194 1.687036 5.470836 -7.146337 2.451900 9.210476 -8.391818 nan nan nan -0.712493 -0.475064 -3.021808 1.610911 -4.718027 -6.156131 11.603125 -2.511059 -2.704373 nan nan nan -1.918809 2.407545 -0.715917 2.217926 -4.083258 2.924794 -0.653878 -0.361075 -1.693593 2.655096 -6.010318 4.154724 17.662171 -3.895472 -11.303876 -21.076633 3.461152 -3.107023 -61.853387 3.819853 20.637043 12.816834 -16.871600 -7.706734 -15.972276 -26.013302 -22.902611 17.827926 -0.532321 -5.977334 51.098753 -1.416436 7.510228 -154.467504 42.692596 -162.160645 12.192989 39.591350 -66.866176 
-32.107368 20.370083 93.277458 175.693529 1.377091 95.752929 -1.072302 -1.217830 1.936699 1.661354 5.423733 -7.188481 2.434419 9.138832 -8.368162 nan nan nan -0.726970 -0.494307 -3.064204 1.642308 -4.764682 -6.153295 11.558693 -2.493664 -2.712311 nan nan nan -1.947416 2.368722 -0.794588 2.248677 -4.110725 3.002928 -0.643127 -0.340207 -1.750358 2.635595 -6.061049 4.206893 17.687796 -3.991222 -11.359722 -21.014374 3.546915 -3.124559 -61.928758 3.766993 20.616684 12.930537 -17.186329 -7.724441 -15.679279 -25.959278 -22.844023 17.819557 -0.536685 -5.936938 51.062996 -1.426966 7.581158 -154.540761 42.884099 -162.191875 11.963547 39.687517 -66.918236 
-32.079098 20.395294 93.275085 175.797787 1.372151 95.836649 -1.036222 -1.216406 1.834484 1.646760 5.421020 -7.197313 2.459273 9.116672 -8.325469 nan nan nan -0.723012 -0.472780 -3.139941 1.657707 -4.874755 -6.146685 11.510286 -2.491696 -2.797234 nan nan nan -1.943416 2.350251 -0.934000 2.257168 -4.128370 3.127198 -0.650666 -0.357996 -1.778178 2.588191 -5.969587 4.241856 17.748465 -4.078567 -11.466372 -20.998717 3.574999 -3.235933 -61.884151 3.754237 20.652224 13.020864 -17.461000 -7.835335 -15.621938 -26.026362 -22.660355 17.849761 -0.531620 -5.973437 51.067223 -1.574369 7.770263 -154.678870 43.040780 -162.358967 11.515899 39.944013 -66.901827 
-32.036873 20.417202 93.280899 175.920231 1.389493 95.887612 -0.953184 -1.259811 1.774267 1.619834 5.392180 -7.196805 2.447382 9.131420 -8.321210 nan nan nan -0.670040 -0.431465 -3.144877 1.649481 -4.914846 -6.171073 11.504797 -2.528787 -2.877067 nan nan nan -1.853533 2.427610 -1.010308 2.230135 -4.084097 3.219864 -0.739052 -0.410073 -1.817424 2.560150 -5.933957 4.217181 17.836563 -4.207782 -11.486258 -20.981586 3.452715 -3.204737 -61.792377 3.579551 20.710358 13.161157 -17.594635 -8.113042 -15.885710 -26.141764 -22.606058 17.917943 -0.599247 -6.080700 51.113781 -1.867846 7.919379 -154.731725 43.136725 -162.449517 11.391316 40.035077 -66.845379 
-32.037354 20.425512 93.289276 176.020098 1.462905 95.834362 -0.872187 -1.272363 1.860121 1.652909 5.223396 -7.252741 2.411319 9.222257 -8.363028 nan nan nan -0.565625 -0.405178 -3.050555 1.644865 -4.928363 -6.188914 11.534102 -2.579890 -2.898573 nan nan nan -2.207741 2.094806 -1.149304 2.426940 -4.367345 3.374489 -0.206505 -0.187201 -1.545184 2.411450 -5.719476 4.044573 17.706461 -3.981714 -11.564034 -21.389636 3.583245 -3.581596 -61.877176 3.574014 20.339531 13.361631 -17.766209 -8.241515 -15.932212 -26.131217 -22.658474 17.817977 -0.053791 -5.823044 50.745044 -1.650948 7.711625 -154.492215 43.380602 -162.411840 11.315076 40.033859 -66.945295 
-32.027283 20.418585 93.281105 176.149949 1.436499 95.819999 -0.918062 -1.299906 1.865317 1.738243 5.116688 -7.247798 2.378944 9.250249 -8.398746 nan nan nan -0.555534 -0.426499 -2.983845 1.679690 -4.930743 -6.242464 11.489684 -2.678951 -2.932398 nan nan nan -2.304376 1.992290 -1.065995 2.469715 -4.461000 3.283966 -0.056778 -0.147357 -1.423407 2.353679 -5.598840 3.879162 17.630355 -3.861170 -11.480081 -21.442587 3.651829 -3.690764 -61.850169 3.449213 20.300837 13.377397 -17.996038 -8.230613 -15.758390 -26.262733 -22.905337 17.746291 -0.076961 -5.825120 50.805258 -1.491117 7.766844 -154.510028 43.763466 -162.467870 11.276570 40.010271 -67.217538 
-31.997555 20.414301 93.257004 176.270763 1.368576 95.833926 -0.981262 -1.296520 1.834173 1.798225 5.082072 -7.213707 2.343712 9.136191 -8.433850 nan nan nan -0.599949 -0.494560 -2.935624 1.740209 -4.928027 -6.310035 11.453774 -2.783518 -2.962160 nan nan nan -1.917435 2.275056 -0.684022 2.307951 -4.232163 2.909738 -0.532798 -0.379457 -1.654957 2.454553 -5.786862 3.901349 17.680509 -4.040832 -11.211385 -20.985444 3.532738 -3.236019 -61.785852 3.123654 20.727239 13.401650 -18.209244 -8.212566 -15.636102 -26.402281 -23.047308 17.714334 -0.738585 -6.093573 51.330315 -1.697944 8.150412 -154.555947 44.205373 -162.399110 11.572741 40.016668 -67.502021 
-32.000252 20.409565 93.259102 176.360407 1.427217 95.780018 -0.912245 -1.255314 1.882623 1.833099 4.920494 -7.227469 2.294022 9.105205 -8.447125 nan nan nan -0.533457 -0.513278 -2.886116 1.755762 -5.005385 -6.290832 11.515241 -2.833273 -2.960151 nan nan nan -2.169253 1.982183 -0.810634 2.434740 -4.475977 3.130987 -0.092999 -0.211608 -1.453169 2.354985 -5.653273 3.829369 17.569988 -3.807865 -11.407174 -21.334298 3.571672 -3.556873 -61.865032 3.074119 20.430825 13.677086 -18.273705 -8.184087 -15.733787 -26.311842 -22.707754 17.534883 -0.149699 -5.825001 51.163307 -1.487543 7.948838 -154.112450 44.707321 -162.119225 12.120814 40.150229 -67.606433 
-31.978796 20.408957 93.267212 176.485452 1.440794 95.769508 -0.856135 -1.220354 1.865180 1.838103 4.780750 -7.217287 2.262467 9.082012 -8.456875 nan nan nan -0.529636 -0.508176 -2.923564 1.796386 -5.081288 -6.195045 11.369188 -2.856928 -3.075948 nan nan nan -2.339487 1.836173 -0.826291 2.504065 -4.565785 3.179007 0.188504 -0.169055 -1.327225 2.301734 -5.501522 3.872734 17.483292 -3.627117 -11.639595 -21.553542 3.524482 -3.799057 -61.843475 2.981917 20.370589 13.780494 -18.362151 -8.584085 -15.759245 -26.258769 -22.620321 17.490015 0.114637 -5.798720 51.057575 -1.513742 7.997738 -153.858932 45.264655 -162.115777 12.893499 40.231009 -67.621870 
-31.952536 20.416014 93.270813 176.684571 1.466587 95.803556 -0.789938 -1.176652 1.800697 1.856581 4.623085 -7.227375 2.208417 9.066023 -8.442486 nan nan nan -0.542618 -0.532946 -2.987162 1.902450 -5.155782 -6.113410 11.175311 -2.892258 -3.147320 nan nan nan -2.339848 1.765920 -0.862894 2.535817 -4.614450 3.280331 0.272660 -0.197768 -1.371783 2.237831 -5.460343 3.907970 17.432758 -3.515224 -11.736835 -21.659296 3.420084 -3.870847 -61.758337 2.836745 20.399626 13.812227 -18.552580 -9.060493 -15.373345 -26.051284 -22.765597 17.540380 0.143901 -5.824826 50.866496 -1.562930 8.054784 -153.777590 46.014747 -162.275375 13.211668 40.103255 -67.474794 
-31.920559 20.428745 93.269150 176.830865 1.510222 95.844897 -0.688066 -1.124828 1.742522 1.822373 4.512850 -7.255551 2.176722 9.072694 -8.394419 nan nan nan -0.508342 -0.549974 -3.061813 1.983352 -5.165507 -6.020449 11.106526 -2.956977 -3.120418 nan nan nan -2.271491 1.706482 -0.911035 2.542797 -4.650759 3.416348 0.260696 -0.203178 -1.495039 2.216668 -5.458540 3.925536 17.420653 -3.466017 -11.760826 -21.660701 3.324977 -3.883281 -61.709176 2.688685 20.423779 13.903262 -18.695134 -9.134349 -15.237217 -25.850002 -22.611017 17.585533 0.146241 -5.806618 50.805331 -1.581794 8.054232 -153.645174 46.944323 -162.299026 13.302354 39.951839 -67.042949 
-31.886564 20.435141 93.260483 176.918954 1.498878 95.826111 -0.663088 -1.134003 1.768376 1.815967 4.439705 -7.273383 2.124908 9.100244 -8.392267 nan nan nan -0.478831 -0.544171 -3.060272 1.991744 -5.137276 -5.948490 11.164782 -3.067647 -3.107228 nan nan nan -2.255258 1.681768 -0.826844 2.522426 -4.655865 3.400066 0.236741 -0.204445 -1.501732 2.239003 -5.432398 3.828061 17.488637 -3.457826 -11.770269 -21.531520 3.243324 -3.886605 -61.781533 2.446832 20.470562 13.974868 -18.701280 -9.169931 -15.142508 -25.805775 -22.390008 17.485884 0.065033 -5.882717 51.040892 -1.678987 8.110196 -153.484208 48.003142 -162.252592 13.475350 39.892407 -66.640239 
-31.854694 20.436979 93.247917 177.030545 1.440074 95.789116 -0.702600 -1.171181 1.823931 1.862995 4.328475 -7.289090 2.075964 9.066500 -8.406463 nan nan nan -0.488310 -0.565896 -2.998620 1.990355 -5.099578 -5.953826 11.138419 -3.202883 -3.123780 nan nan nan -2.150709 1.743322 -0.582601 2.455641 -4.611659 3.232598 0.074836 -0.273586 -1.579634 2.323079 -5.480841 3.688984 17.548430 -3.568807 -11.641896 -21.225025 3.227702 -3.778444 -61.886370 2.062154 20.624143 13.921225 -18.621039 -9.243630 -15.033666 -26.013802 -22.479602 17.205216 -0.267680 -6.019428 51.578741 -1.878320 8.290249 -153.329062 49.220261 -162.011147 13.481487 39.837656 -66.575938 
-31.794550 20.444462 93.236732 177.162910 1.376539 95.798951 -0.705424 -1.127513 1.824977 1.860652 4.155865 -7.305619 2.022550 8.985001 -8.445137 nan nan nan -0.502236 -0.574524 -2.980658 1.994902 -5.064642 -5.967818 10.903624 -3.338491 -3.182516 nan nan nan -1.825885 1.968302 -0.248504 2.301350 -4.375089 2.917719 -0.356792 -0.495587 -1.851094 2.484726 -5.644652 3.636792 17.627138 -3.869453 -11.299412 -20.745408 3.109293 -3.382403 -61.940682 1.597488 21.003977 13.957287 -18.561119 -9.462605 -15.221599 -26.289014 -22.746190 17.033709 -0.890698 -6.190645 52.165897 -2.205894 8.626447 -153.149050 50.518185 -161.790657 13.612820 39.796502 -66.622410 
-31.749239 20.464237 93.239441 177.270955 1.379426 95.807976 -0.672305 -1.073850 1.834450 1.886947 3.993146 -7.343137 1.957749 8.990139 -8.463145 nan nan nan -0.454805 -0.509579 -2.966797 1.945456 -5.087077 -5.990897 10.874788 -3.445676 -3.180680 nan nan nan -1.788977 1.933657 -0.268354 2.287428 -4.346888 2.809792 -0.347670 -0.517351 -1.762472 2.440233 -5.652933 3.699863 17.670059 -3.882578 -11.303512 -20.793196 2.944493 -3.278923 -61.831776 1.394146 21.009117 14.020064 -18.728427 -9.685339 -15.042450 -26.299380 -22.769165 16.954756 -0.878057 -6.083791 52.182094 -2.240926 8.655109 -152.793017 51.892373 -161.738956 13.611992 39.667304 -66.300652 
